<?xml version="1.0" encoding="UTF-8"?>
<svg width="24px" height="24px" viewBox="0 0 24 24" version="1.1" xmlns="http://www.w3.org/2000/svg" xmlns:xlink="http://www.w3.org/1999/xlink">
    <!-- Generator: Sketch 47.1 (45422) - http://www.bohemiancoding.com/sketch -->
    <title>facebook</title>
    <desc>Created with Sketch.</desc>
    <defs>
        <polygon id="path-1" points="0 24.0157263 0 0.0155501222 24 0.0155501222 24 24.0157263"></polygon>
    </defs>
    <g id="Page-1" stroke="none" stroke-width="1" fill="none" fill-rule="evenodd">
        <g id="Main" transform="translate(-660.000000, -4883.000000)">
            <g id="section-3" transform="translate(0.000000, 4150.000000)">
                <g id="social" transform="translate(660.000000, 733.000000)">
                    <g id="facebook">
                        <g>
                            <mask id="mask-2" fill="white">
                                <use xlink:href="#path-1"></use>
                            </mask>
                            <g id="Clip-2"></g>
                            <path d="M20.7658696,0.0155501222 L3.2340717,0.0155501222 C1.44797877,0.0155501222 0,1.46347018 0,3.24962182 L0,20.7815371 C0,22.5676888 1.44792006,24.0156088 3.2340717,24.0156088 L11.8806708,24.0156088 L11.8954071,15.4392863 L9.66728231,15.4392863 C9.37772179,15.4392863 9.14270338,15.2051486 9.14158788,14.915588 L9.13090255,12.1510835 C9.12978705,11.8599378 9.36550999,11.6233342 9.6566557,11.6233342 L11.8807295,11.6233342 L11.8807295,8.95212069 C11.8807295,5.85220264 13.7739692,4.16427378 16.5392957,4.16427378 L18.8084592,4.16427378 C19.098783,4.16427378 19.3342124,4.39964445 19.3342124,4.69002693 L19.3342124,7.02107136 C19.3342124,7.31133642 19.0989591,7.54664838 18.8087528,7.54682451 L17.4161968,7.54747032 C15.9123256,7.54747032 15.6211211,8.26209537 15.6211211,9.31084227 L15.6211211,11.6233929 L18.9256455,11.6233929 C19.2405103,11.6233929 19.484805,11.8983345 19.4476999,12.211027 L19.1200362,14.9755315 C19.0886848,15.2400814 18.8643517,15.4394037 18.5979818,15.4394037 L15.6358575,15.4394037 L15.6211211,24.0157263 L20.765987,24.0157263 C22.5520799,24.0157263 24,22.5678062 24,20.7817133 L24,3.24962182 C23.9999413,1.46347018 22.5520212,0.0155501222 20.7658696,0.0155501222" id="Fill-1" fill="#FFFFFF" mask="url(#mask-2)"></path>
                        </g>
                    </g>
                </g>
            </g>
        </g>
    </g>
</svg>