<?xml version="1.0" encoding="UTF-8"?>
<svg width="24px" height="24px" viewBox="0 0 24 24" version="1.1" xmlns="http://www.w3.org/2000/svg" xmlns:xlink="http://www.w3.org/1999/xlink">
    <!-- Generator: Sketch 47.1 (45422) - http://www.bohemiancoding.com/sketch -->
    <title>instagram</title>
    <desc>Created with Sketch.</desc>
    <defs>
        <path d="M17.0151557,23.9973913 C20.8611418,23.8940457 23.958,20.733266 23.958,16.8627826 L23.958,7.17921739 C23.9579565,3.24373913 20.7562174,0.042 16.8207826,0.042 L7.13721739,0.042 C3.20173913,0.042 0,3.24373913 0,7.17921739 L0,16.8627826 C0,20.733266 3.09685824,23.8940457 6.9428443,23.9973913 L17.0151557,23.9973913 Z M21.5478261,16.8627826 C21.5478261,19.4734348 19.4314348,21.5898261 16.8207826,21.5898261 L7.13721739,21.5898261 C4.52656522,21.5898261 2.41017391,19.4734348 2.41017391,16.8627826 L2.41017391,7.17921739 C2.41017391,4.56852174 4.52656522,2.45217391 7.13721739,2.45217391 L16.8207826,2.45217391 C19.4314348,2.45217391 21.5478261,4.56852174 21.5478261,7.17921739 L21.5478261,16.8627826 Z" id="path-1"></path>
    </defs>
    <g id="Page-1" stroke="none" stroke-width="1" fill="none" fill-rule="evenodd">
        <g id="Main" transform="translate(-708.000000, -4883.000000)">
            <g id="section-3" transform="translate(0.000000, 4150.000000)">
                <g id="social" transform="translate(660.000000, 733.000000)">
                    <g id="instagram" transform="translate(48.000000, 0.000000)">
                        <g>
                            <g id="Group-3">
                                <mask id="mask-2" fill="white">
                                    <use xlink:href="#path-1"></use>
                                </mask>
                                <g id="Clip-2"></g>
                                <polygon id="Fill-1" fill="#FFFFFF" mask="url(#mask-2)" points="0 23.9973913 23.958 23.9973913 23.958 0.042 0 0.042"></polygon>
                            </g>
                            <path d="M11.979,15.8072174 C9.88791304,15.8072174 8.19278261,14.112087 8.19278261,12.021 C8.19278261,9.92991304 9.88795652,8.23478261 11.979,8.23478261 C14.070087,8.23478261 15.7652174,9.92991304 15.7652174,12.021 C15.7652174,14.1120435 14.0700435,15.8072174 11.979,15.8072174 Z M11.979,5.8246087 C8.56230435,5.8246087 5.7826087,8.60430435 5.7826087,12.0209565 C5.7826087,15.4376087 8.56230435,18.2173478 11.979,18.2173478 C15.3956957,18.2173478 18.1753913,15.4376522 18.1753913,12.0209565 C18.1753913,8.60426087 15.3956957,5.8246087 11.979,5.8246087 L11.979,5.8246087 Z" id="Fill-4" fill="#FFFFFF"></path>
                            <path d="M18.1873913,4.38634783 C19.0074348,4.38634783 19.6721739,5.05108696 19.6721739,5.87113043 C19.6721739,6.69117391 19.0074348,7.35591304 18.1873913,7.35591304 C17.3673478,7.35591304 16.7026087,6.69117391 16.7026087,5.87113043 C16.7026087,5.05108696 17.3673478,4.38634783 18.1873913,4.38634783" id="Fill-6" fill="#FFFFFF"></path>
                        </g>
                    </g>
                </g>
            </g>
        </g>
    </g>
</svg>