<?xml version="1.0" encoding="UTF-8"?>
<svg width="24px" height="21px" viewBox="0 0 24 21" version="1.1" xmlns="http://www.w3.org/2000/svg" xmlns:xlink="http://www.w3.org/1999/xlink">
    <!-- Generator: Sketch 47.1 (45422) - http://www.bohemiancoding.com/sketch -->
    <title>twitter</title>
    <desc>Created with Sketch.</desc>
    <defs>
        <polygon id="path-1" points="0.00350364964 19.9672993 0.00350364964 0.0482919708 23.9506569 0.0482919708 23.9506569 19.9672993"></polygon>
    </defs>
    <g id="Page-1" stroke="none" stroke-width="1" fill="none" fill-rule="evenodd">
        <g id="Main" transform="translate(-756.000000, -4885.000000)">
            <g id="section-3" transform="translate(0.000000, 4150.000000)">
                <g id="social" transform="translate(660.000000, 733.000000)">
                    <g id="twitter" transform="translate(96.000000, 0.000000)">
                        <g transform="translate(0.000000, 2.400000)">
                            <mask id="mask-2" fill="white">
                                <use xlink:href="#path-1"></use>
                            </mask>
                            <g id="Clip-2"></g>
                            <path d="M23.5697518,2.36589781 C23.0376058,2.60186861 22.4851971,2.7880292 21.918365,2.92280292 C22.5429489,2.32928467 23.0125547,1.58691971 23.2774891,0.758306569 C23.3531095,0.521751825 23.0961752,0.31719708 22.8825693,0.443854015 C22.0940146,0.911591241 21.2446131,1.26248175 20.3578978,1.48689051 C20.3064526,1.49991241 20.2533723,1.50651095 20.2001168,1.50651095 C20.0385985,1.50651095 19.8815766,1.44654015 19.758073,1.33769343 C18.8146569,0.506218978 17.6012847,0.0482919708 16.3415474,0.0482919708 C15.796438,0.0482919708 15.246073,0.133255474 14.7056934,0.300846715 C13.0314161,0.820145985 11.739562,2.20122628 11.3342482,3.90516788 C11.1821898,4.54429197 11.1410219,5.184 11.2117956,5.80648175 C11.2199124,5.8780146 11.1861022,5.92794161 11.1652555,5.95135766 C11.1286423,5.99240876 11.0767299,6.01594161 11.0228321,6.01594161 C11.0168175,6.01594161 11.0106277,6.01564964 11.0044964,6.01506569 C7.33956204,5.67456934 4.03468613,3.90890511 1.69862774,1.04338686 C1.57950365,0.897226277 1.35106569,0.915153285 1.25611679,1.0780146 C0.798656934,1.86283212 0.556905109,2.76046715 0.556905109,3.67386861 C0.556905109,5.07369343 1.11929927,6.39287591 2.09617518,7.35456934 C1.68537226,7.25716788 1.28776642,7.10376642 0.918423358,6.89862774 C0.739737226,6.79935766 0.519883212,6.92694891 0.517372263,7.13132847 C0.49179562,9.21086131 1.70931387,11.0612555 3.53319708,11.8944818 C3.49646715,11.8953577 3.45973723,11.8957664 3.42294891,11.8957664 C3.13383942,11.8957664 2.84110949,11.867854 2.5529927,11.8127883 C2.35176642,11.774365 2.18271533,11.9652555 2.24519708,12.1603504 C2.83719708,14.0085839 4.42855474,15.3709197 6.33290511,15.6802336 C4.75240876,16.7411971 2.91188321,17.3008467 0.996262774,17.3008467 L0.399065693,17.3004964 C0.215065693,17.3004964 0.0594452555,17.420438 0.0125547445,17.5986569 C-0.0336350365,17.7741898 0.0514452555,17.9593577 0.208350365,18.0506277 C2.36694891,19.3068613 4.82913869,19.9708029 7.32981022,19.9708029 C9.51871533,19.9708029 11.5662482,19.5364088 13.4155912,18.6797664 C15.1109489,17.8944234 16.6091095,16.7717956 17.868438,15.3430657 C19.0415766,14.012146 19.9589489,12.4757372 20.5949781,10.7765839 C21.2012847,9.15690511 21.5217518,7.42867153 21.5217518,5.77868613 L21.5217518,5.70008759 C21.5216934,5.43515328 21.6415182,5.18586861 21.8505693,5.01617518 C22.643854,4.37208759 23.3346569,3.61389781 23.903708,2.76268613 C24.0539562,2.53792701 23.8169927,2.25623358 23.5697518,2.36589781" id="Fill-1" fill="#FFFFFF" mask="url(#mask-2)"></path>
                        </g>
                    </g>
                </g>
            </g>
        </g>
    </g>
</svg>